<svg xmlns="http://www.w3.org/2000/svg">
  <symbol id="whatsapp" viewBox="0 0 24 24"><path d="M20.5 11.8a8.5 8.5 0 0 1-12.6 7.4L3.5 20.5l1.4-4.2A8.5 8.5 0 1 1 20.5 11.8Z"/><path d="M8.2 7.6c.2-.4.4-.4.7-.4h.5l.8 2c.1.3 0 .5-.2.7l-.6.7c.8 1.7 2 2.8 3.8 3.6l.7-.8c.2-.2.4-.3.7-.2l1.9.9c.3.1.4.3.4.6 0 1.1-.8 2-1.9 2.2-1.4.2-3.3-.5-5.2-2.2-1.7-1.5-2.8-3.5-3-4.9-.2-.9.5-1.8 1.4-2.2Z"/></symbol>
  <symbol id="phone" viewBox="0 0 24 24"><path d="M7.2 3.5 4.4 5.2c-.8.5-1.1 1.4-.8 2.3 2 6 6.8 10.8 12.8 12.8.9.3 1.9 0 2.3-.8l1.7-2.8-4.6-2.2-1.4 2.1c-3.1-1.3-5.8-4-7.1-7.1l2.1-1.4-2.2-4.6Z"/></symbol>
  <symbol id="mail" viewBox="0 0 24 24"><rect x="3" y="5" width="18" height="14" rx="1"/><path d="m4 7 8 6 8-6"/></symbol>
  <symbol id="instagram" viewBox="0 0 24 24"><rect x="3" y="3" width="18" height="18" rx="5"/><circle cx="12" cy="12" r="4"/><circle cx="17.4" cy="6.7" r=".8" class="fill"/></symbol>
  <symbol id="telegram" viewBox="0 0 24 24"><path d="m3.5 11.4 16.8-6.5c.8-.3 1.5.4 1.2 1.3l-3.2 13.4c-.2.9-1.3 1.2-1.9.6l-4.9-4.2-2.7 2.6.4-4.3 8.1-6.1-10 4.5-3.8-1.3Z"/></symbol>
  <symbol id="linkedin" viewBox="0 0 24 24"><rect x="4" y="9" width="4" height="11"/><rect x="4" y="4" width="4" height="3"/><path d="M12 20V9h4v1.7c.8-1.2 2-2 3.6-2 2.7 0 4.4 1.8 4.4 5.4V20h-4v-5.3c0-1.6-.6-2.7-2-2.7-1.2 0-2 .8-2 2.8V20h-4Z"/></symbol>
  <symbol id="globe" viewBox="0 0 24 24"><circle cx="12" cy="12" r="9"/><path d="M3 12h18M12 3c2.3 2.5 3.5 5.5 3.5 9s-1.2 6.5-3.5 9c-2.3-2.5-3.5-5.5-3.5-9S9.7 5.5 12 3Z"/></symbol>
  <symbol id="location" viewBox="0 0 24 24"><path d="M19 10c0 5-7 11-7 11S5 15 5 10a7 7 0 1 1 14 0Z"/><circle cx="12" cy="10" r="2.5"/></symbol>
  <symbol id="message" viewBox="0 0 24 24"><path d="M4 5h16v11H9l-5 4V5Z"/><path d="M8 9h8M8 12h5"/></symbol>
  <symbol id="partnership" viewBox="0 0 24 24"><path d="m3 12 4-4 4 3 2-2 8 7-4 4-5-4-2 2-7-6Z"/><path d="m7 8 3-3 4 2 3-1 4 4-3 3"/></symbol>
</svg>
